<?xml version="1.0" standalone="no"?>
<!DOCTYPE svg PUBLIC "-//W3C//DTD SVG 20010904//EN"
 "http://www.w3.org/TR/2001/REC-SVG-20010904/DTD/svg10.dtd">
<svg version="1.0" xmlns="http://www.w3.org/2000/svg"
 width="457.000000pt" height="427.000000pt" viewBox="0 0 457.000000 427.000000"
 preserveAspectRatio="xMidYMid meet">

<g transform="translate(0.000000,427.000000) scale(0.100000,-0.100000)"
fill="#000000" stroke="none">
<path d="M600 2050 l0 -1090 564 0 565 0 64 83 c281 363 357 463 357 469 0 5
-196 8 -435 8 l-435 0 0 810 0 810 -340 0 -340 0 0 -1090z"/>
<path d="M2515 3133 c-184 -17 -390 -93 -499 -183 -141 -117 -209 -271 -209
-480 -2 -325 153 -508 513 -606 56 -15 129 -19 525 -24 452 -6 491 -9 552 -41
49 -26 69 -128 38 -193 -9 -19 -34 -43 -58 -57 l-42 -24 -440 -5 -439 -5 -129
-165 c-71 -91 -163 -209 -205 -263 -42 -55 -81 -105 -85 -113 -7 -12 87 -14
645 -13 359 0 682 4 718 8 378 49 594 197 674 466 26 84 36 226 25 323 -17
136 -57 222 -143 307 -101 99 -192 142 -396 186 -25 6 -256 13 -515 17 -422 7
-474 10 -507 26 -56 27 -71 50 -76 115 -5 72 13 111 65 137 35 18 75 19 563
24 l524 5 79 105 c44 58 136 179 206 270 70 91 130 171 135 178 6 9 -144 12
-736 10 -409 -1 -761 -3 -783 -5z"/>
</g>
</svg>
